<svg width="484" height="297" viewBox="0 0 484 297" fill="none" xmlns="http://www.w3.org/2000/svg">
	<path d="M176.544 230.72H153.216V207.68C136.128 226.496 116.352 235.904 93.888 235.904C71.616 235.904 52.608 227.744 36.864 211.424C21.12 195.104 13.248 175.52 13.248 152.672C13.248 129.824 21.216 110.336 37.152 94.208C53.088 77.888 72.48 69.728 95.328 69.728C118.368 69.728 137.664 79.04 153.216 97.664V14.72H176.544V230.72ZM95.904 213.728C111.072 213.728 124.608 208.064 136.512 196.736C148.416 185.408 154.368 171.104 154.368 153.824C154.368 136.352 148.8 121.856 137.664 110.336C126.72 98.624 112.8 92.768 95.904 92.768C79.2 92.768 65.184 98.816 53.856 110.912C42.72 122.816 37.152 136.928 37.152 153.248C37.152 169.376 42.912 183.488 54.432 195.584C65.952 207.68 79.776 213.728 95.904 213.728ZM291.62 69.728C314.276 69.728 333.476 77.888 349.22 94.208C365.156 110.528 373.124 130.112 373.124 152.96C373.124 175.808 365.252 195.392 349.508 211.712C333.956 227.84 314.66 235.904 291.62 235.904C268.58 235.904 249.188 227.84 233.444 211.712C217.7 195.392 209.828 175.808 209.828 152.96C209.828 130.112 217.7 110.528 233.444 94.208C249.38 77.888 268.772 69.728 291.62 69.728ZM291.62 213.152C307.556 213.152 321.092 207.392 332.228 195.872C343.556 184.16 349.22 170.144 349.22 153.824C349.22 137.312 343.46 123.104 331.94 111.2C320.612 99.104 307.076 93.056 291.332 93.056C275.78 93.056 262.34 99.104 251.012 111.2C239.684 123.104 234.02 137.312 234.02 153.824C234.02 170.336 239.492 184.352 250.436 195.872C261.38 207.392 275.108 213.152 291.62 213.152ZM478.035 94.496H446.931V204.512C446.931 208.544 447.507 211.04 448.659 212C449.811 212.768 452.691 213.152 457.299 213.152H471.123V233.6C461.907 235.136 454.899 235.904 450.099 235.904C440.883 235.904 434.067 233.696 429.651 229.28C425.235 224.672 423.027 217.472 423.027 207.68V94.496H395.955V73.76H423.027V14.72H446.931V73.76H478.035V94.496Z" fill="black" />
	<ellipse cx="292" cy="150.5" rx="63" ry="64.5" fill="black" />
	<g clip-path="url(#clip0)">
		<path d="M333.167 198.83H249.831C248.487 198.83 247.397 197.819 247.397 196.568V154.406L230.428 154.375C229.445 154.372 228.558 153.82 228.184 152.977C227.809 152.131 228.018 151.161 228.712 150.514L289.72 93.8296C290.275 93.3163 291.068 93.0878 291.83 93.1964C292.553 93.3049 293.181 93.7097 293.546 94.2932L307.75 107.49V103.277C307.75 102.028 308.837 101.015 310.184 101.015H324.485C325.831 101.015 326.919 102.028 326.919 103.277V125.301L354.286 150.731C354.983 151.378 355.192 152.353 354.815 153.199C354.437 154.042 353.549 154.592 352.565 154.592C352.563 154.592 352.563 154.592 352.561 154.592L335.599 154.56V196.568C335.602 197.819 334.513 198.83 333.167 198.83ZM252.265 194.307H330.733V152.294C330.733 151.692 330.989 151.116 331.449 150.693C331.907 150.27 332.523 150.032 333.168 150.032C333.17 150.032 333.17 150.032 333.172 150.032L346.68 150.057L322.766 127.836C322.309 127.411 322.053 126.836 322.053 126.237V105.538H312.621V112.952C312.621 113.866 312.029 114.691 311.119 115.042C310.211 115.395 309.164 115.2 308.466 114.551L291.385 98.681L236.3 149.863L249.836 149.888C251.18 149.89 252.265 150.901 252.265 152.149C252.265 152.149 252.265 194.307 252.265 194.307Z" fill="white" />
	</g>
	<defs>
		<clipPath id="clip0">
			<rect width="127" height="118" fill="white" transform="translate(228 89)" />
		</clipPath>
	</defs>
</svg>
